<svg width="53" height="53" viewBox="0 0 53 53" fill="none" xmlns="http://www.w3.org/2000/svg">
<path d="M25.519 0.96652C25.7313 -0.10843 27.2687 -0.108432 27.481 0.966519L29.997 13.7034C30.1469 14.4625 31.0652 14.771 31.6431 14.2564L41.6459 5.34883C42.4713 4.61381 43.7031 5.5634 43.2024 6.5487L37.3948 17.9764C37.0319 18.6904 37.6139 19.5201 38.4089 19.4219L51.7697 17.7716C52.8805 17.6344 53.3435 19.1469 52.3463 19.655L40.6623 25.609C39.9344 25.98 39.9344 27.02 40.6623 27.391L52.3463 33.345C53.3435 33.8531 52.8805 35.3656 51.7697 35.2284L38.4089 33.5781C37.6139 33.4799 37.0319 34.3096 37.3948 35.0236L43.2024 46.4513C43.7031 47.4366 42.4713 48.3862 41.6459 47.6512L31.6431 38.7436C31.0652 38.229 30.1469 38.5375 29.997 39.2966L27.481 52.0335C27.2687 53.1084 25.7313 53.1084 25.519 52.0335L23.003 39.2966C22.8531 38.5375 21.9348 38.229 21.3569 38.7436L11.3541 47.6512C10.5287 48.3862 9.29687 47.4366 9.7976 46.4513L15.6052 35.0237C15.9681 34.3096 15.3861 33.4799 14.5911 33.5781L1.23028 35.2284C0.11954 35.3656 -0.343515 33.8531 0.653659 33.345L12.3377 27.391C13.0656 27.02 13.0656 25.98 12.3377 25.609L0.653659 19.655C-0.343515 19.1469 0.119535 17.6344 1.23028 17.7716L14.5911 19.4219C15.3861 19.5201 15.9681 18.6904 15.6052 17.9763L9.7976 6.5487C9.29687 5.5634 10.5287 4.61381 11.3541 5.34883L21.3569 14.2564C21.9348 14.771 22.8531 14.4625 23.003 13.7034L25.519 0.96652Z" fill="#FFBF00"/>
</svg>
